<?xml version="1.0" standalone="no"?>
<!DOCTYPE svg PUBLIC "-//W3C//DTD SVG 20010904//EN"
 "http://www.w3.org/TR/2001/REC-SVG-20010904/DTD/svg10.dtd">
<svg version="1.0" xmlns="http://www.w3.org/2000/svg"
 width="418.000000pt" height="421.000000pt" viewBox="0 0 418.000000 421.000000"
 preserveAspectRatio="xMidYMid meet">

<g transform="translate(0.000000,421.000000) scale(0.100000,-0.100000)"
fill="#000000" stroke="none">
<path d="M1333 3549 c-93 -27 -231 -214 -378 -514 -110 -224 -163 -356 -239
-600 -64 -204 -70 -259 -32 -294 73 -68 210 -75 1431 -68 899 6 1206 13 1267
32 23 8 23 36 -1 145 -47 209 -170 538 -311 825 -149 303 -258 445 -365 475
-79 22 -206 8 -427 -49 -120 -31 -218 -51 -252 -51 -31 0 -114 16 -193 36 -76
20 -176 45 -223 55 -90 20 -223 23 -277 8z"/>
<path d="M665 1640 c-304 -11 -361 -19 -397 -60 -49 -54 -37 -121 66 -364 56
-131 82 -169 144 -200 124 -63 210 -66 1717 -65 l1330 0 65 79 c77 92 145 218
189 346 36 107 40 165 11 194 -24 24 -100 46 -210 61 -102 14 -2540 21 -2915
9z"/>
</g>
</svg>
